<svg xmlns="http://www.w3.org/2000/svg" width="122" height="88" viewBox="0 0 122 88" fill="none">
    <path
        d="M112.218 84.6429H2.5V83.6571V82.1633V75.1918V18.4245V2.5H113.517C115.117 8.26492 116.337 13.9919 117.175 19.3118L117.185 19.3745L117.198 19.4367C119.035 28.174 119.5 36.454 119.5 43.8204C119.5 51.0782 118.585 58.8692 116.727 67.7061L116.714 67.7683L116.704 67.8311C116.261 70.6426 115.36 73.9945 114.434 76.9298L114.414 76.993L114.398 77.0571L113.002 82.4689C112.796 83.1136 112.59 83.6602 112.361 84.2663L112.354 84.2843C112.31 84.4014 112.264 84.5207 112.218 84.6429Z"
        stroke="white" stroke-width="5" stroke-miterlimit="10"></path>
    <path d="M113.285 4.35714L60.9998 52.2857L4.35693 4.35714" stroke="white" stroke-width="5" stroke-miterlimit="10">
    </path>
</svg>
