<?xml version="1.0" standalone="no"?>
<!DOCTYPE svg PUBLIC "-//W3C//DTD SVG 20010904//EN"
 "http://www.w3.org/TR/2001/REC-SVG-20010904/DTD/svg10.dtd">
<svg version="1.0" xmlns="http://www.w3.org/2000/svg"
 width="700.000000pt" height="700.000000pt" viewBox="0 0 700.000000 700.000000"
 preserveAspectRatio="xMidYMid meet">
<metadata>
Created by potrace 1.14, written by Peter Selinger 2001-2017
</metadata>
<g transform="translate(0.000000,700.000000) scale(0.100000,-0.100000)"
fill="#000000" stroke="none">
<path d="M777 6989 c-38 -5 -111 -23 -163 -40 -330 -110 -564 -400 -604 -750
-8 -65 -10 -904 -8 -2764 l3 -2670 22 -77 c27 -94 80 -223 98 -238 10 -8 274
392 1279 1942 l1266 1953 -537 5 -536 5 1752 819 c964 450 1754 817 1755 815
13 -15 1056 -1628 1056 -1633 0 -3 -166 -6 -368 -6 l-368 0 -1364 -2102 c-751
-1157 -1386 -2136 -1412 -2176 l-48 -72 1823 2 1822 3 80 22 c111 31 250 102
340 173 142 113 259 296 308 480 l22 85 0 2730 c0 2557 -1 2734 -17 2797 -47
180 -125 321 -244 441 -117 117 -244 189 -422 240 l-77 22 -2695 1 c-1518 1
-2725 -2 -2763 -7z"/>
</g>
</svg>
